P3
79 72
255
0 0 0  0 0 0  0 0 0  0 0 0  0 0 0  0 0 0
0 0 0  0 0 0  0 0 0  0 0 0  0 0 0  0 0 0
0 0 0  0 0 0  0 0 0  0 0 0  0 0 0  0 0 0
0 0 0  0 0 0  0 0 0  0 0 0  0 0 0  0 0 0
0 0 0  0 0 0  0 0 0  0 0 0  0 0 0  0 0 0
0 0 0  0 0 0  0 0 0  0 0 0  0 0 0  0 0 0
0 0 0  0 0 0  0 0 0  0 0 0  0 0 0  0 0 0
0 0 0  0 0 0  0 0 0  0 0 0  0 0 0  0 0 0
0 0 0  0 0 0  0 0 0  0 0 0  0 0 0  0 0 0
0 0 0  0 0 0  0 0 0  0 0 0  0 0 0  0 0 0
0 0 0  0 0 0  0 0 0  0 0 0  0 0 0  0 0 0
0 0 0  0 0 0  0 0 0  0 0 0  0 0 0  0 0 0
0 0 0  0 0 0  0 0 0  0 0 0  0 0 0  0 0 0
0 0 0
0 0 0  0 0 0  0 0 0  0 0 0  0 0 0  0 0 0
0 0 0  0 0 0  0 0 0  0 0 0  0 0 0  0 0 0
0 0 0  0 0 0  0 0 0  0 0 0  0 0 0  0 0 0
0 0 0  0 0 0  0 0 0  0 0 0  0 0 0  0 0 0
0 0 0  0 0 0  0 0 0  0 0 0  0 0 0  0 0 0
0 0 0  0 0 0  0 0 0  0 0 0  0 0 0  0 0 0
0 0 0  0 0 0  0 0 0  0 0 0  0 0 0  0 0 0
0 0 0  0 0 0  0 0 0  0 0 0  0 0 0  0 0 0
0 0 0  0 0 0  0 0 0  0 0 0  0 0 0  0 0 0
0 0 0  0 0 0  0 0 0  0 0 0  0 0 0  0 0 0
0 0 0  0 0 0  0 0 0  0 0 0  0 0 0  0 0 0
0 0 0  0 0 0  0 0 0  0 0 0  0 0 0  0 0 0
0 0 0  0 0 0  0 0 0  0 0 0  0 0 0  0 0 0
0 0 0
0 0 0  0 0 0  0 0 0  0 0 0  0 0 0  0 0 0
0 0 0  0 0 0  0 0 0  0 0 0  0 0 0  0 0 0
0 0 0  0 0 0  0 0 0  0 0 0  0 0 0  0 0 0
0 0 0  0 0 0  0 0 0  0 0 0  0 0 0  0 0 0
0 0 0  0 0 0  0 0 0  0 0 0  0 0 0  0 0 0
0 0 0  0 0 0  0 0 0  0 0 0  0 0 0  0 0 0
0 0 0  0 0 0  0 0 0  0 0 0  0 0 0  0 0 0
0 0 0  0 0 0  0 0 0  0 0 0  0 0 0  0 0 0
0 0 0  0 0 0  0 0 0  0 0 0  0 0 0  0 0 0
0 0 0  0 0 0  0 0 0  0 0 0  0 0 0  0 0 0
0 0 0  0 0 0  0 0 0  0 0 0  0 0 0  0 0 0
0 0 0  0 0 0  0 0 0  0 0 0  0 0 0  0 0 0
0 0 0  0 0 0  0 0 0  0 0 0  0 0 0  0 0 0
0 0 0
0 0 0  0 0 0  0 0 0  0 0 0  0 0 0  0 0 0
0 0 0  0 0 0  0 0 0  0 0 0  0 0 0  0 0 0
0 0 0  0 0 0  0 0 0  0 0 0  0 0 0  0 0 0
0 0 0  0 0 0  0 0 0  0 0 0  0 0 0  0 0 0
0 0 0  0 0 0  0 0 0  0 0 0  0 0 0  0 0 0
0 0 0  0 0 0  0 0 0  0 0 0  0 0 0  0 0 0
0 0 0  0 0 0  0 0 0  0 0 0  0 0 0  0 0 0
0 0 0  0 0 0  0 0 0  0 0 0  0 0 0  0 0 0
0 0 0  0 0 0  0 0 0  0 0 0  0 0 0  0 0 0
0 0 0  0 0 0  0 0 0  0 0 0  0 0 0  0 0 0
0 0 0  0 0 0  0 0 0  0 0 0  0 0 0  0 0 0
0 0 0  0 0 0  0 0 0  0 0 0  0 0 0  0 0 0
0 0 0  0 0 0  0 0 0  0 0 0  0 0 0  0 0 0
0 0 0
0 0 0  0 0 0  0 0 0  0 0 0  0 0 0  0 0 0
0 0 0  0 0 0  0 0 0  0 0 0  0 0 0  0 0 0
0 0 0  0 0 0  0 0 0  0 0 0  0 0 0  0 0 0
0 0 0  0 0 0  0 0 0  0 0 0  0 0 0  0 0 0
0 0 0  0 0 0  0 0 0  0 0 0  0 0 0  0 0 0
0 0 0  0 0 0  0 0 0  0 0 0  0 0 0  0 0 0
0 0 0  0 0 0  0 0 0  0 0 0  0 0 0  0 0 0
0 0 0  0 0 0  0 0 0  0 0 0  0 0 0  0 0 0
0 0 0  0 0 0  0 0 0  0 0 0  0 0 0  0 0 0
0 0 0  0 0 0  0 0 0  0 0 0  0 0 0  0 0 0
0 0 0  0 0 0  0 0 0  0 0 0  0 0 0  0 0 0
0 0 0  0 0 0  0 0 0  0 0 0  0 0 0  0 0 0
0 0 0  0 0 0  0 0 0  0 0 0  0 0 0  0 0 0
0 0 0
0 0 0  0 0 0  0 0 0  0 0 0  0 0 0  0 0 0
0 0 0  0 0 0  0 0 0  0 0 0  0 0 0  0 0 0
0 0 0  0 0 0  0 0 0  0 0 0  0 0 0  0 0 0
0 0 0  0 0 0  0 0 0  0 0 0  0 0 0  0 0 0
0 0 0  0 0 0  0 0 0  0 0 0  0 0 0  0 0 0
0 0 0  5 5 5  17 18 15  28 32 22  35 42 23  36 45 23
37 48 22  40 52 25  40 52 25  40 52 25  40 52 25  37 48 22
36 45 23  35 42 23  28 32 22  20 22 18  5 5 5  0 0 0
0 0 0  0 0 0  0 0 0  0 0 0  0 0 0  0 0 0
0 0 0  0 0 0  0 0 0  0 0 0  0 0 0  0 0 0
0 0 0  0 0 0  0 0 0  0 0 0  0 0 0  0 0 0
0 0 0  0 0 0  0 0 0  0 0 0  0 0 0  0 0 0
0 0 0  0 0 0  0 0 0  0 0 0  0 0 0  0 0 0
0 0 0
0 0 0  0 0 0  0 0 0  0 0 0  0 0 0  0 0 0
0 0 0  0 0 0  0 0 0  0 0 0  0 0 0  0 0 0
0 0 0  0 0 0  0 0 0  0 0 0  0 0 0  0 0 0
0 0 0  0 0 0  0 0 0  0 0 0  0 0 0  0 0 0
0 0 0  0 0 0  0 0 0  0 0 0  13 14 12  31 36 24
37 48 22  40 52 25  40 52 25  40 52 25  40 52 25  40 52 25
40 52 25  40 52 25  40 52 25  40 52 25  40 52 25  40 52 25
40 52 25  40 52 25  40 52 25  40 52 25  40 52 25  37 48 22
31 36 24  13 14 12  0 0 0  0 0 0  0 0 0  0 0 0
0 0 0  0 0 0  0 0 0  0 0 0  0 0 0  0 0 0
0 0 0  0 0 0  0 0 0  0 0 0  0 0 0  0 0 0
0 0 0  0 0 0  0 0 0  0 0 0  0 0 0  0 0 0
0 0 0  0 0 0  0 0 0  0 0 0  0 0 0  0 0 0
0 0 0
0 0 0  0 0 0  0 0 0  0 0 0  0 0 0  0 0 0
0 0 0  0 0 0  0 0 0  0 0 0  0 0 0  0 0 0
0 0 0  0 0 0  0 0 0  0 0 0  0 0 0  0 0 0
0 0 0  0 0 0  0 0 0  0 0 0  0 0 0  0 0 0
0 0 0  0 0 0  23 25 19  37 48 22  40 52 25  40 52 25
40 52 25  40 52 25  40 52 25  40 52 25  40 52 25  40 52 25
40 52 25  40 52 25  40 52 25  40 52 25  40 52 25  40 52 25
40 52 25  40 52 25  40 52 25  40 52 25  40 52 25  40 52 25
40 52 25  40 52 25  38 49 23  23 25 19  5 5 5  0 0 0
0 0 0  0 0 0  0 0 0  0 0 0  0 0 0  0 0 0
0 0 0  0 0 0  0 0 0  0 0 0  0 0 0  0 0 0
0 0 0  0 0 0  0 0 0  0 0 0  0 0 0  0 0 0
0 0 0  0 0 0  0 0 0  0 0 0  0 0 0  0 0 0
0 0 0
0 0 0  0 0 0  0 0 0  0 0 0  0 0 0  0 0 0
0 0 0  0 0 0  0 0 0  0 0 0  0 0 0  0 0 0
0 0 0  0 0 0  0 0 0  0 0 0  0 0 0  0 0 0
0 0 0  0 0 0  0 0 0  0 0 0  0 0 0  0 0 0
28 32 22  39 49 25  40 52 25  40 52 25  40 52 25  40 52 25
40 52 25  40 52 25  40 52 25  40 52 25  40 52 25  40 52 25
40 52 25  40 52 25  40 52 25  40 52 25  40 52 25  40 52 25
40 52 25  40 52 25  40 52 25  40 52 25  40 52 25  40 52 25
40 52 25  40 52 25  40 52 25  40 52 25  39 49 25  28 32 22
5 5 5  0 0 0  0 0 0  0 0 0  0 0 0  0 0 0
0 0 0  0 0 0  0 0 0  0 0 0  0 0 0  0 0 0
0 0 0  0 0 0  0 0 0  0 0 0  0 0 0  0 0 0
0 0 0  0 0 0  0 0 0  0 0 0  0 0 0  0 0 0
0 0 0
0 0 0  0 0 0  0 0 0  0 0 0  0 0 0  0 0 0
0 0 0  0 0 0  0 0 0  0 0 0  0 0 0  0 0 0
0 0 0  0 0 0  0 0 0  0 0 0  0 0 0  0 0 0
0 0 0  0 0 0  0 0 0  0 0 0  20 22 18  38 49 23
40 52 25  40 52 25  40 52 25  40 52 25  40 52 25  40 52 25
40 52 25  40 52 25  40 52 25  40 52 25  40 52 25  40 52 25
40 52 25  40 52 25  40 52 25  40 52 25  40 52 25  40 52 25
40 52 25  40 52 25  40 52 25  40 52 25  40 52 25  40 52 25
40 52 25  40 52 25  40 52 25  40 52 25  40 52 25  40 52 25
38 49 23  20 22 18  0 0 0  0 0 0  0 0 0  0 0 0
0 0 0  0 0 0  0 0 0  0 0 0  0 0 0  0 0 0
0 0 0  0 0 0  0 0 0  0 0 0  0 0 0  0 0 0
0 0 0  0 0 0  0 0 0  0 0 0  0 0 0  0 0 0
0 0 0
0 0 0  0 0 0  0 0 0  0 0 0  0 0 0  0 0 0
0 0 0  0 0 0  0 0 0  0 0 0  0 0 0  0 0 0
0 0 0  0 0 0  0 0 0  0 0 0  0 0 0  0 0 0
0 0 0  0 0 0  5 5 5  35 42 23  40 52 25  40 52 25
40 52 25  40 52 25  40 52 25  40 52 25  40 52 25  40 52 25
40 52 25  40 52 25  40 52 25  40 52 25  40 52 25  40 52 25
40 52 25  40 52 25  40 52 25  40 52 25  40 52 25  40 52 25
40 52 25  40 52 25  40 52 25  40 52 25  40 52 25  40 52 25
40 52 25  40 52 25  40 52 25  40 52 25  40 52 25  40 52 25
40 52 25  40 52 25  36 45 23  5 5 5  0 0 0  0 0 0
0 0 0  0 0 0  0 0 0  0 0 0  0 0 0  0 0 0
0 0 0  0 0 0  0 0 0  0 0 0  0 0 0  0 0 0
0 0 0  0 0 0  0 0 0  0 0 0  0 0 0  0 0 0
0 0 0
0 0 0  0 0 0  0 0 0  0 0 0  0 0 0  0 0 0
0 0 0  0 0 0  0 0 0  0 0 0  0 0 0  0 0 0
0 0 0  0 0 0  0 0 0  0 0 0  0 0 0  0 0 0
0 0 0  13 14 12  39 49 25  40 52 25  40 52 25  40 52 25
40 52 25  40 52 25  40 52 25  40 52 25  40 52 25  40 52 25
40 52 25  40 52 25  40 52 25  40 52 25  40 52 25  40 52 25
40 52 25  40 52 25  40 52 25  40 52 25  40 52 25  40 52 25
40 52 25  40 52 25  40 52 25  40 52 25  40 52 25  40 52 25
40 52 25  40 52 25  40 52 25  40 52 25  40 52 25  40 52 25
40 52 25  40 52 25  40 52 25  39 49 25  17 18 15  0 0 0
0 0 0  0 0 0  0 0 0  0 0 0  0 0 0  0 0 0
0 0 0  0 0 0  0 0 0  0 0 0  0 0 0  0 0 0
0 0 0  0 0 0  0 0 0  0 0 0  0 0 0  0 0 0
0 0 0
0 0 0  0 0 0  0 0 0  0 0 0  0 0 0  0 0 0
0 0 0  0 0 0  0 0 0  0 0 0  0 0 0  0 0 0
0 0 0  0 0 0  0 0 0  0 0 0  0 0 0  0 0 0
23 25 19  40 52 25  40 52 25  40 52 25  40 52 25  40 52 25
40 52 25  40 52 25  40 52 25  40 52 25  40 52 25  40 52 25
40 52 25  40 52 25  40 52 25  40 52 25  40 52 25  40 52 25
40 52 25  40 52 25  40 52 25  40 52 25  40 52 25  40 52 25
40 52 25  40 52 25  40 52 25  40 52 25  40 52 25  40 52 25
40 52 25  40 52 25  40 52 25  40 52 25  40 52 25  40 52 25
40 52 25  40 52 25  40 52 25  40 52 25  40 52 25  23 25 19
0 0 0  0 0 0  0 0 0  0 0 0  0 0 0  0 0 0
0 0 0  0 0 0  0 0 0  0 0 0  0 0 0  0 0 0
0 0 0  0 0 0  0 0 0  0 0 0  0 0 0  0 0 0
0 0 0
0 0 0  0 0 0  0 0 0  0 0 0  0 0 0  0 0 0
0 0 0  0 0 0  0 0 0  0 0 0  0 0 0  0 0 0
0 0 0  0 0 0  0 0 0  0 0 0  0 0 0  26 29 21
40 52 25  40 52 25  40 52 25  40 52 25  40 52 25  40 52 25
40 52 25  40 52 25  40 52 25  40 52 25  40 52 25  40 52 25
40 52 25  40 52 25  40 52 25  40 52 25  40 52 25  40 52 25
40 52 25  40 52 25  40 52 25  40 52 25  40 52 25  40 52 25
40 52 25  40 52 25  40 52 25  40 52 25  40 52 25  40 52 25
40 52 25  40 52 25  40 52 25  40 52 25  40 52 25  40 52 25
40 52 25  40 52 25  40 52 25  40 52 25  40 52 25  40 52 25
34 40 25  0 0 0  0 0 0  0 0 0  0 0 0  0 0 0
0 0 0  0 0 0  0 0 0  0 0 0  0 0 0  0 0 0
0 0 0  0 0 0  0 0 0  0 0 0  0 0 0  0 0 0
0 0 0
0 0 0  0 0 0  0 0 0  0 0 0  0 0 0  0 0 0
0 0 0  0 0 0  0 0 0  0 0 0  0 0 0  0 0 0
0 0 0  0 0 0  0 0 0  0 0 0  28 32 22  40 52 25
40 52 25  40 52 25  40 52 25  40 52 25  40 52 25  40 52 25
40 52 25  40 52 25  40 52 25  40 52 25  40 52 25  40 52 25
40 52 25  40 52 25  40 52 25  40 52 25  40 52 25  40 52 25
40 52 25  36 45 23  36 45 23  36 45 23  36 45 23  39 49 25
40 52 25  40 52 25  40 52 25  40 52 25  40 52 25  40 52 25
40 52 25  40 52 25  40 52 25  40 52 25  40 52 25  40 52 25
40 52 25  40 52 25  40 52 25  40 52 25  40 52 25  40 52 25
40 52 25  34 40 25  0 0 0  0 0 0  0 0 0  0 0 0
0 0 0  0 0 0  0 0 0  0 0 0  0 0 0  0 0 0
0 0 0  0 0 0  0 0 0  0 0 0  0 0 0  0 0 0
0 0 0
0 0 0  0 0 0  0 0 0  0 0 0  0 0 0  0 0 0
0 0 0  0 0 0  0 0 0  0 0 0  0 0 0  0 0 0
0 0 0  0 0 0  0 0 0  23 25 19  40 52 25  40 52 25
40 52 25  40 52 25  40 52 25  40 52 25  40 52 25  40 52 25
40 52 25  40 52 25  40 52 25  40 52 25  40 52 25  40 52 25
40 52 25  40 52 25  37 48 22  28 32 22  17 18 15  5 5 5
0 0 0  0 0 0  0 0 0  0 0 0  0 0 0  0 0 0
0 0 0  17 18 15  28 32 22  37 48 22  40 52 25  40 52 25
40 52 25  40 52 25  40 52 25  40 52 25  40 52 25  40 52 25
40 52 25  40 52 25  40 52 25  40 52 25  40 52 25  40 52 25
40 52 25  40 52 25  28 32 22  0 0 0  0 0 0  0 0 0
0 0 0  0 0 0  0 0 0  0 0 0  0 0 0  0 0 0
0 0 0  0 0 0  0 0 0  0 0 0  0 0 0  0 0 0
0 0 0
0 0 0  0 0 0  0 0 0  0 0 0  0 0 0  0 0 0
0 0 0  0 0 0  0 0 0  0 0 0  0 0 0  0 0 0
0 0 0  0 0 0  20 22 18  40 52 25  40 52 25  40 52 25
40 52 25  40 52 25  40 52 25  40 52 25  40 52 25  40 52 25
40 52 25  40 52 25  40 52 25  40 52 25  40 52 25  39 49 25
31 36 24  9 9 8  0 0 0  0 0 0  0 0 0  0 0 0
0 0 0  0 0 0  0 0 0  0 0 0  0 0 0  0 0 0
0 0 0  0 0 0  0 0 0  0 0 0  9 9 8  28 32 22
39 49 25  40 52 25  40 52 25  40 52 25  40 52 25  40 52 25
40 52 25  40 52 25  40 52 25  40 52 25  40 52 25  40 52 25
40 52 25  40 52 25  40 52 25  23 25 19  0 0 0  0 0 0
0 0 0  0 0 0  0 0 0  0 0 0  0 0 0  0 0 0
0 0 0  0 0 0  0 0 0  0 0 0  0 0 0  0 0 0
0 0 0
0 0 0  0 0 0  0 0 0  0 0 0  0 0 0  0 0 0
0 0 0  0 0 0  0 0 0  0 0 0  0 0 0  0 0 0
0 0 0  9 9 8  39 49 25  40 52 25  40 52 25  40 52 25
40 52 25  40 52 25  40 52 25  40 52 25  40 52 25  40 52 25
40 52 25  40 52 25  40 52 25  40 52 25  28 32 22  5 5 5
0 0 0  0 0 0  0 0 0  0 0 0  0 0 0  0 0 0
0 0 0  0 0 0  0 0 0  0 0 0  0 0 0  0 0 0
0 0 0  0 0 0  0 0 0  0 0 0  0 0 0  0 0 0
5 5 5  28 32 22  39 49 25  40 52 25  40 52 25  40 52 25
40 52 25  40 52 25  40 52 25  40 52 25  40 52 25  40 52 25
40 52 25  40 52 25  40 52 25  39 49 25  13 14 12  0 0 0
0 0 0  0 0 0  0 0 0  0 0 0  0 0 0  0 0 0
0 0 0  0 0 0  0 0 0  0 0 0  0 0 0  0 0 0
0 0 0
0 0 0  0 0 0  0 0 0  0 0 0  0 0 0  0 0 0
0 0 0  0 0 0  0 0 0  0 0 0  0 0 0  0 0 0
0 0 0  37 48 22  40 52 25  40 52 25  40 52 25  40 52 25
40 52 25  40 52 25  40 52 25  40 52 25  40 52 25  40 52 25
40 52 25  40 52 25  37 48 22  9 9 8  0 0 0  0 0 0
0 0 0  0 0 0  0 0 0  0 0 0  0 0 0  0 0 0
0 0 0  0 0 0  0 0 0  0 0 0  0 0 0  0 0 0
0 0 0  0 0 0  0 0 0  0 0 0  0 0 0  0 0 0
0 0 0  0 0 0  9 9 8  36 45 23  40 52 25  40 52 25
40 52 25  40 52 25  40 52 25  40 52 25  40 52 25  40 52 25
40 52 25  40 52 25  40 52 25  40 52 25  38 49 23  5 5 5
0 0 0  0 0 0  0 0 0  0 0 0  0 0 0  0 0 0
0 0 0  0 0 0  0 0 0  0 0 0  0 0 0  0 0 0
0 0 0
0 0 0  0 0 0  0 0 0  0 0 0  0 0 0  0 0 0
0 0 0  0 0 0  0 0 0  0 0 0  0 0 0  0 0 0
28 32 22  40 52 25  40 52 25  40 52 25  40 52 25  40 52 25
40 52 25  40 52 25  40 52 25  40 52 25  40 52 25  40 52 25
40 52 25  31 36 24  0 0 0  0 0 0  0 0 0  0 0 0
0 0 0  0 0 0  0 0 0  0 0 0  0 0 0  0 0 0
0 0 0  0 0 0  0 0 0  0 0 0  0 0 0  0 0 0
0 0 0  0 0 0  0 0 0  0 0 0  0 0 0  0 0 0
0 0 0  0 0 0  0 0 0  0 0 0  28 32 22  40 52 25
40 52 25  40 52 25  40 52 25  40 52 25  40 52 25  40 52 25
40 52 25  40 52 25  40 52 25  40 52 25  40 52 25  31 36 24
0 0 0  0 0 0  0 0 0  0 0 0  0 0 0  0 0 0
0 0 0  0 0 0  0 0 0  0 0 0  0 0 0  0 0 0
0 0 0
0 0 0  0 0 0  0 0 0  0 0 0  0 0 0  0 0 0
0 0 0  0 0 0  0 0 0  0 0 0  0 0 0  9 9 8
39 49 25  40 52 25  40 52 25  40 52 25  40 52 25  40 52 25
40 52 25  40 52 25  40 52 25  40 52 25  40 52 25  40 52 25
23 25 19  0 0 0  0 0 0  0 0 0  0 0 0  0 0 0
0 0 0  0 0 0  0 0 0  0 0 0  0 0 0  0 0 0
0 0 0  0 0 0  0 0 0  0 0 0  0 0 0  0 0 0
0 0 0  0 0 0  0 0 0  0 0 0  0 0 0  0 0 0
0 0 0  0 0 0  0 0 0  0 0 0  0 0 0  23 25 19
40 52 25  40 52 25  40 52 25  40 52 25  40 52 25  40 52 25
40 52 25  40 52 25  40 52 25  40 52 25  40 52 25  40 52 25
17 18 15  0 0 0  0 0 0  0 0 0  0 0 0  0 0 0
0 0 0  0 0 0  0 0 0  0 0 0  0 0 0  0 0 0
0 0 0
0 0 0  0 0 0  0 0 0  0 0 0  0 0 0  0 0 0
0 0 0  0 0 0  0 0 0  0 0 0  0 0 0  34 40 25
40 52 25  40 52 25  40 52 25  40 52 25  40 52 25  40 52 25
40 52 25  40 52 25  40 52 25  40 52 25  40 52 25  23 25 19
0 0 0  0 0 0  0 0 0  0 0 0  0 0 0  0 0 0
0 0 0  0 0 0  0 0 0  0 0 0  0 0 0  0 0 0
0 0 0  0 0 0  0 0 0  0 0 0  0 0 0  0 0 0
0 0 0  0 0 0  0 0 0  0 0 0  0 0 0  0 0 0
0 0 0  0 0 0  0 0 0  0 0 0  0 0 0  0 0 0
23 25 19  40 52 25  40 52 25  40 52 25  40 52 25  40 52 25
40 52 25  40 52 25  40 52 25  40 52 25  40 52 25  40 52 25
36 45 23  0 0 0  0 0 0  0 0 0  0 0 0  0 0 0
0 0 0  0 0 0  0 0 0  0 0 0  0 0 0  0 0 0
0 0 0
0 0 0  0 0 0  0 0 0  0 0 0  0 0 0  0 0 0
0 0 0  0 0 0  0 0 0  0 0 0  9 9 8  40 52 25
40 52 25  40 52 25  40 52 25  40 52 25  40 52 25  40 52 25
40 52 25  40 52 25  40 52 25  40 52 25  28 32 22  0 0 0
0 0 0  0 0 0  0 0 0  0 0 0  0 0 0  0 0 0
0 0 0  0 0 0  0 0 0  0 0 0  0 0 0  0 0 0
0 0 0  0 0 0  0 0 0  0 0 0  0 0 0  0 0 0
0 0 0  0 0 0  0 0 0  0 0 0  0 0 0  0 0 0
0 0 0  0 0 0  0 0 0  0 0 0  0 0 0  0 0 0
0 0 0  23 25 19  40 52 25  40 52 25  40 52 25  40 52 25
40 52 25  40 52 25  40 52 25  40 52 25  40 52 25  40 52 25
40 52 25  23 25 19  0 0 0  0 0 0  0 0 0  0 0 0
0 0 0  0 0 0  0 0 0  0 0 0  0 0 0  0 0 0
0 0 0
0 0 0  0 0 0  0 0 0  0 0 0  0 0 0  0 0 0
0 0 0  0 0 0  0 0 0  0 0 0  34 40 25  40 52 25
40 52 25  40 52 25  40 52 25  40 52 25  40 52 25  40 52 25
40 52 25  40 52 25  40 52 25  35 42 23  0 0 0  0 0 0
0 0 0  0 0 0  0 0 0  0 0 0  0 0 0  0 0 0
0 0 0  0 0 0  0 0 0  0 0 0  0 0 0  0 0 0
0 0 0  0 0 0  0 0 0  0 0 0  0 0 0  0 0 0
0 0 0  0 0 0  0 0 0  0 0 0  0 0 0  0 0 0
0 0 0  0 0 0  0 0 0  0 0 0  0 0 0  0 0 0
0 0 0  0 0 0  34 40 25  40 52 25  40 52 25  40 52 25
40 52 25  40 52 25  40 52 25  40 52 25  40 52 25  40 52 25
40 52 25  37 48 22  0 0 0  0 0 0  0 0 0  0 0 0
0 0 0  0 0 0  0 0 0  0 0 0  0 0 0  0 0 0
0 0 0
0 0 0  0 0 0  0 0 0  0 0 0  0 0 0  0 0 0
0 0 0  0 0 0  0 0 0  5 5 5  40 52 25  40 52 25
40 52 25  40 52 25  40 52 25  40 52 25  40 52 25  40 52 25
40 52 25  40 52 25  39 49 25  5 5 5  0 0 0  0 0 0
0 0 0  0 0 0  0 0 0  0 0 0  0 0 0  0 0 0
0 0 0  0 0 0  0 0 0  0 0 0  0 0 0  0 0 0
0 0 0  0 0 0  0 0 0  0 0 0  0 0 0  0 0 0
0 0 0  0 0 0  0 0 0  0 0 0  0 0 0  0 0 0
0 0 0  0 0 0  0 0 0  0 0 0  0 0 0  0 0 0
0 0 0  0 0 0  5 5 5  37 48 22  40 52 25  40 52 25
40 52 25  40 52 25  40 52 25  40 52 25  40 52 25  40 52 25
40 52 25  40 52 25  17 18 15  0 0 0  0 0 0  0 0 0
0 0 0  0 0 0  0 0 0  0 0 0  0 0 0  0 0 0
0 0 0
0 0 0  0 0 0  0 0 0  0 0 0  0 0 0  0 0 0
0 0 0  0 0 0  0 0 0  26 29 21  40 52 25  40 52 25
40 52 25  40 52 25  40 52 25  40 52 25  40 52 25  40 52 25
40 52 25  40 52 25  23 25 19  0 0 0  0 0 0  0 0 0
0 0 0  0 0 0  0 0 0  0 0 0  0 0 0  0 0 0
0 0 0  0 0 0  0 0 0  0 0 0  0 0 0  0 0 0
0 0 0  0 0 0  0 0 0  0 0 0  0 0 0  0 0 0
0 0 0  0 0 0  0 0 0  0 0 0  0 0 0  0 0 0
0 0 0  0 0 0  0 0 0  0 0 0  0 0 0  0 0 0
0 0 0  0 0 0  0 0 0  17 18 15  40 52 25  40 52 25
40 52 25  40 52 25  40 52 25  40 52 25  40 52 25  40 52 25
40 52 25  40 52 25  34 40 25  0 0 0  0 0 0  0 0 0
0 0 0  0 0 0  0 0 0  0 0 0  0 0 0  0 0 0
0 0 0
0 0 0  0 0 0  0 0 0  0 0 0  0 0 0  0 0 0
0 0 0  0 0 0  0 0 0  37 48 22  40 52 25  40 52 25
40 52 25  40 52 25  40 52 25  40 52 25  40 52 25  40 52 25
40 52 25  36 45 23  0 0 0  0 0 0  0 0 0  0 0 0
0 0 0  0 0 0  0 0 0  0 0 0  0 0 0  0 0 0
0 0 0  0 0 0  0 0 0  0 0 0  0 0 0  0 0 0
0 0 0  0 0 0  0 0 0  0 0 0  0 0 0  0 0 0
0 0 0  0 0 0  0 0 0  0 0 0  0 0 0  0 0 0
0 0 0  0 0 0  0 0 0  0 0 0  0 0 0  0 0 0
0 0 0  0 0 0  0 0 0  0 0 0  34 40 25  40 52 25
40 52 25  40 52 25  40 52 25  40 52 25  40 52 25  40 52 25
40 52 25  40 52 25  40 52 25  5 5 5  0 0 0  0 0 0
0 0 0  0 0 0  0 0 0  0 0 0  0 0 0  0 0 0
0 0 0
0 0 0  0 0 0  0 0 0  0 0 0  0 0 0  0 0 0
0 0 0  0 0 0  9 9 8  40 52 25  40 52 25  40 52 25
40 52 25  40 52 25  40 52 25  40 52 25  40 52 25  40 52 25
40 52 25  20 22 18  0 0 0  0 0 0  0 0 0  0 0 0
0 0 0  0 0 0  0 0 0  0 0 0  0 0 0  0 0 0
0 0 0  0 0 0  0 0 0  0 0 0  0 0 0  0 0 0
0 0 0  0 0 0  0 0 0  0 0 0  0 0 0  0 0 0
0 0 0  0 0 0  0 0 0  0 0 0  0 0 0  0 0 0
0 0 0  0 0 0  0 0 0  0 0 0  0 0 0  0 0 0
0 0 0  0 0 0  0 0 0  0 0 0  9 9 8  40 52 25
40 52 25  40 52 25  40 52 25  40 52 25  40 52 25  40 52 25
40 52 25  40 52 25  40 52 25  23 25 19  0 0 0  0 0 0
0 0 0  0 0 0  0 0 0  0 0 0  0 0 0  0 0 0
0 0 0
0 0 0  0 0 0  0 0 0  0 0 0  0 0 0  0 0 0
0 0 0  0 0 0  23 25 19  40 52 25  40 52 25  40 52 25
40 52 25  40 52 25  40 52 25  40 52 25  40 52 25  40 52 25
38 49 23  0 0 0  0 0 0  0 0 0  0 0 0  0 0 0
0 0 0  0 0 0  0 0 0  0 0 0  0 0 0  0 0 0
0 0 0  0 0 0  0 0 0  0 0 0  0 0 0  0 0 0
0 0 0  0 0 0  0 0 0  0 0 0  0 0 0  0 0 0
0 0 0  0 0 0  0 0 0  0 0 0  0 0 0  0 0 0
0 0 0  0 0 0  0 0 0  0 0 0  0 0 0  0 0 0
0 0 0  0 0 0  0 0 0  0 0 0  0 0 0  35 42 23
40 52 25  40 52 25  40 52 25  40 52 25  40 52 25  40 52 25
40 52 25  40 52 25  40 52 25  34 40 25  0 0 0  0 0 0
0 0 0  0 0 0  0 0 0  0 0 0  0 0 0  0 0 0
0 0 0
0 0 0  0 0 0  0 0 0  0 0 0  0 0 0  0 0 0
0 0 0  0 0 0  34 40 25  40 52 25  40 52 25  40 52 25
40 52 25  40 52 25  40 52 25  40 52 25  40 52 25  40 52 25
31 36 24  0 0 0  0 0 0  0 0 0  0 0 0  0 0 0
0 0 0  0 0 0  0 0 0  0 0 0  0 0 0  0 0 0
0 0 0  0 0 0  0 0 0  0 0 0  0 0 0  0 0 0
0 0 0  0 0 0  0 0 0  0 0 0  0 0 0  0 0 0
0 0 0  0 0 0  0 0 0  0 0 0  0 0 0  0 0 0
0 0 0  0 0 0  0 0 0  0 0 0  0 0 0  0 0 0
0 0 0  0 0 0  0 0 0  0 0 0  0 0 0  20 22 18
40 52 25  40 52 25  40 52 25  40 52 25  40 52 25  40 52 25
40 52 25  40 52 25  40 52 25  38 49 23  0 0 0  0 0 0
0 0 0  0 0 0  0 0 0  0 0 0  0 0 0  0 0 0
0 0 0
0 0 0  0 0 0  0 0 0  0 0 0  0 0 0  0 0 0
0 0 0  0 0 0  37 48 22  40 52 25  40 52 25  40 52 25
40 52 25  40 52 25  40 52 25  40 52 25  40 52 25  40 52 25
13 14 12  0 0 0  0 0 0  0 0 0  0 0 0  0 0 0
0 0 0  0 0 0  0 0 0  0 0 0  0 0 0  0 0 0
0 0 0  0 0 0  0 0 0  0 0 0  0 0 0  0 0 0
0 0 0  0 0 0  0 0 0  0 0 0  0 0 0  0 0 0
0 0 0  0 0 0  0 0 0  0 0 0  0 0 0  0 0 0
0 0 0  0 0 0  0 0 0  0 0 0  0 0 0  0 0 0
0 0 0  0 0 0  0 0 0  0 0 0  0 0 0  0 0 0
39 49 25  40 52 25  40 52 25  40 52 25  40 52 25  40 52 25
40 52 25  40 52 25  40 52 25  40 52 25  5 5 5  0 0 0
0 0 0  0 0 0  0 0 0  0 0 0  0 0 0  0 0 0
0 0 0
0 0 0  0 0 0  0 0 0  0 0 0  0 0 0  0 0 0
0 0 0  0 0 0  40 52 25  40 52 25  40 52 25  40 52 25
40 52 25  40 52 25  40 52 25  40 52 25  40 52 25  39 49 25
0 0 0  0 0 0  0 0 0  0 0 0  0 0 0  0 0 0
0 0 0  0 0 0  0 0 0  0 0 0  0 0 0  0 0 0
0 0 0  0 0 0  0 0 0  0 0 0  0 0 0  0 0 0
0 0 0  0 0 0  0 0 0  0 0 0  0 0 0  0 0 0
0 0 0  0 0 0  0 0 0  0 0 0  0 0 0  0 0 0
0 0 0  0 0 0  0 0 0  0 0 0  0 0 0  0 0 0
0 0 0  0 0 0  0 0 0  0 0 0  0 0 0  0 0 0
35 42 23  40 52 25  40 52 25  40 52 25  40 52 25  40 52 25
40 52 25  40 52 25  40 52 25  40 52 25  17 18 15  0 0 0
0 0 0  0 0 0  0 0 0  0 0 0  0 0 0  0 0 0
0 0 0
0 0 0  0 0 0  0 0 0  0 0 0  0 0 0  0 0 0
0 0 0  13 14 12  40 52 25  40 52 25  40 52 25  40 52 25
40 52 25  40 52 25  40 52 25  40 52 25  40 52 25  36 45 23
0 0 0  0 0 0  0 0 0  0 0 0  0 0 0  0 0 0
0 0 0  0 0 0  0 0 0  0 0 0  0 0 0  0 0 0
0 0 0  0 0 0  0 0 0  0 0 0  0 0 0  0 0 0
0 0 0  0 0 0  0 0 0  0 0 0  0 0 0  0 0 0
0 0 0  0 0 0  0 0 0  0 0 0  0 0 0  0 0 0
0 0 0  0 0 0  0 0 0  0 0 0  0 0 0  0 0 0
0 0 0  0 0 0  0 0 0  0 0 0  0 0 0  0 0 0
26 29 21  40 52 25  40 52 25  40 52 25  40 52 25  40 52 25
40 52 25  40 52 25  40 52 25  40 52 25  28 32 22  0 0 0
0 0 0  0 0 0  0 0 0  0 0 0  0 0 0  0 0 0
0 0 0
0 0 0  0 0 0  0 0 0  0 0 0  0 0 0  0 0 0
0 0 0  17 18 15  40 52 25  40 52 25  40 52 25  40 52 25
40 52 25  40 52 25  40 52 25  40 52 25  40 52 25  28 32 22
0 0 0  0 0 0  0 0 0  0 0 0  0 0 0  0 0 0
0 0 0  0 0 0  0 0 0  0 0 0  0 0 0  0 0 0
0 0 0  0 0 0  0 0 0  0 0 0  0 0 0  0 0 0
0 0 0  0 0 0  0 0 0  0 0 0  0 0 0  0 0 0
0 0 0  0 0 0  0 0 0  0 0 0  0 0 0  0 0 0
0 0 0  0 0 0  0 0 0  0 0 0  0 0 0  0 0 0
0 0 0  0 0 0  0 0 0  0 0 0  0 0 0  0 0 0
17 18 15  40 52 25  40 52 25  40 52 25  40 52 25  40 52 25
40 52 25  40 52 25  40 52 25  40 52 25  28 32 22  0 0 0
0 0 0  0 0 0  0 0 0  0 0 0  0 0 0  0 0 0
0 0 0
0 0 0  0 0 0  0 0 0  0 0 0  0 0 0  0 0 0
0 0 0  17 18 15  40 52 25  40 52 25  40 52 25  40 52 25
40 52 25  40 52 25  40 52 25  40 52 25  40 52 25  28 32 22
0 0 0  0 0 0  0 0 0  0 0 0  0 0 0  0 0 0
0 0 0  0 0 0  0 0 0  0 0 0  0 0 0  0 0 0
0 0 0  0 0 0  0 0 0  0 0 0  0 0 0  0 0 0
0 0 0  0 0 0  0 0 0  0 0 0  0 0 0  0 0 0
0 0 0  0 0 0  0 0 0  0 0 0  0 0 0  0 0 0
0 0 0  0 0 0  0 0 0  0 0 0  0 0 0  0 0 0
0 0 0  0 0 0  0 0 0  0 0 0  0 0 0  0 0 0
9 9 8  40 52 25  40 52 25  40 52 25  40 52 25  40 52 25
40 52 25  40 52 25  40 52 25  40 52 25  34 40 25  0 0 0
0 0 0  0 0 0  0 0 0  0 0 0  0 0 0  0 0 0
0 0 0
0 0 0  0 0 0  0 0 0  0 0 0  0 0 0  0 0 0
0 0 0  20 22 18  40 52 25  40 52 25  40 52 25  40 52 25
40 52 25  40 52 25  40 52 25  40 52 25  40 52 25  20 22 18
0 0 0  0 0 0  0 0 0  0 0 0  0 0 0  0 0 0
0 0 0  0 0 0  0 0 0  0 0 0  0 0 0  0 0 0
0 0 0  0 0 0  0 0 0  0 0 0  0 0 0  0 0 0
0 0 0  0 0 0  0 0 0  0 0 0  0 0 0  0 0 0
0 0 0  0 0 0  0 0 0  0 0 0  0 0 0  0 0 0
0 0 0  0 0 0  0 0 0  0 0 0  0 0 0  0 0 0
0 0 0  0 0 0  0 0 0  0 0 0  0 0 0  0 0 0
0 0 0  40 52 25  40 52 25  40 52 25  40 52 25  40 52 25
40 52 25  40 52 25  40 52 25  40 52 25  36 45 23  0 0 0
0 0 0  0 0 0  0 0 0  0 0 0  0 0 0  0 0 0
0 0 0
0 0 0  0 0 0  0 0 0  0 0 0  0 0 0  0 0 0
0 0 0  28 32 22  40 52 25  40 52 25  40 52 25  40 52 25
40 52 25  40 52 25  40 52 25  40 52 25  40 52 25  17 18 15
0 0 0  0 0 0  0 0 0  0 0 0  0 0 0  0 0 0
0 0 0  0 0 0  0 0 0  0 0 0  0 0 0  0 0 0
0 0 0  0 0 0  0 0 0  0 0 0  0 0 0  0 0 0
0 0 0  0 0 0  0 0 0  0 0 0  0 0 0  0 0 0
0 0 0  0 0 0  0 0 0  0 0 0  0 0 0  0 0 0
0 0 0  0 0 0  0 0 0  0 0 0  0 0 0  0 0 0
0 0 0  0 0 0  0 0 0  0 0 0  0 0 0  0 0 0
0 0 0  40 52 25  40 52 25  40 52 25  40 52 25  40 52 25
40 52 25  40 52 25  40 52 25  40 52 25  36 45 23  0 0 0
0 0 0  0 0 0  0 0 0  0 0 0  0 0 0  0 0 0
0 0 0
0 0 0  0 0 0  0 0 0  0 0 0  0 0 0  0 0 0
0 0 0  17 18 15  40 52 25  40 52 25  40 52 25  40 52 25
40 52 25  40 52 25  40 52 25  40 52 25  40 52 25  20 22 18
0 0 0  0 0 0  0 0 0  0 0 0  0 0 0  0 0 0
0 0 0  0 0 0  0 0 0  0 0 0  0 0 0  0 0 0
0 0 0  0 0 0  0 0 0  0 0 0  0 0 0  0 0 0
0 0 0  0 0 0  0 0 0  0 0 0  0 0 0  5 5 5
28 32 22  38 49 23  40 52 25  40 52 25  35 42 23  20 22 18
0 0 0  0 0 0  0 0 0  0 0 0  0 0 0  0 0 0
0 0 0  0 0 0  0 0 0  0 0 0  0 0 0  0 0 0
0 0 0  40 52 25  40 52 25  40 52 25  40 52 25  40 52 25
40 52 25  40 52 25  40 52 25  40 52 25  36 45 23  0 0 0
0 0 0  0 0 0  0 0 0  0 0 0  0 0 0  0 0 0
0 0 0
0 0 0  0 0 0  0 0 0  0 0 0  0 0 0  0 0 0
0 0 0  17 18 15  40 52 25  40 52 25  40 52 25  40 52 25
40 52 25  40 52 25  40 52 25  40 52 25  40 52 25  28 32 22
0 0 0  0 0 0  0 0 0  0 0 0  0 0 0  0 0 0
0 0 0  0 0 0  0 0 0  0 0 0  0 0 0  0 0 0
0 0 0  0 0 0  0 0 0  0 0 0  0 0 0  0 0 0
0 0 0  0 0 0  0 0 0  0 0 0  5 5 5  37 48 22
40 52 25  40 52 25  40 52 25  40 52 25  40 52 25  40 52 25
34 40 25  0 0 0  0 0 0  0 0 0  0 0 0  0 0 0
0 0 0  0 0 0  0 0 0  0 0 0  0 0 0  0 0 0
9 9 8  40 52 25  40 52 25  40 52 25  40 52 25  40 52 25
40 52 25  40 52 25  40 52 25  40 52 25  34 40 25  0 0 0
0 0 0  0 0 0  0 0 0  0 0 0  0 0 0  0 0 0
0 0 0
0 0 0  0 0 0  0 0 0  0 0 0  0 0 0  0 0 0
0 0 0  17 18 15  40 52 25  40 52 25  40 52 25  40 52 25
40 52 25  40 52 25  40 52 25  40 52 25  40 52 25  28 32 22
0 0 0  0 0 0  0 0 0  0 0 0  0 0 0  0 0 0
0 0 0  0 0 0  0 0 0  0 0 0  0 0 0  0 0 0
0 0 0  0 0 0  0 0 0  0 0 0  0 0 0  0 0 0
0 0 0  0 0 0  0 0 0  0 0 0  36 45 23  40 52 25
40 52 25  40 52 25  40 52 25  40 52 25  40 52 25  40 52 25
40 52 25  34 40 25  0 0 0  0 0 0  0 0 0  0 0 0
0 0 0  0 0 0  0 0 0  0 0 0  0 0 0  0 0 0
17 18 15  40 52 25  40 52 25  40 52 25  40 52 25  40 52 25
40 52 25  40 52 25  40 52 25  40 52 25  28 32 22  0 0 0
0 0 0  0 0 0  0 0 0  0 0 0  0 0 0  0 0 0
0 0 0
0 0 0  0 0 0  0 0 0  0 0 0  0 0 0  0 0 0
0 0 0  9 9 8  40 52 25  40 52 25  40 52 25  40 52 25
40 52 25  40 52 25  40 52 25  40 52 25  40 52 25  36 45 23
0 0 0  0 0 0  0 0 0  0 0 0  0 0 0  0 0 0
0 0 0  0 0 0  0 0 0  0 0 0  0 0 0  0 0 0
0 0 0  0 0 0  0 0 0  0 0 0  0 0 0  0 0 0
0 0 0  0 0 0  0 0 0  13 14 12  40 52 25  40 52 25
40 52 25  40 52 25  40 52 25  40 52 25  40 52 25  40 52 25
40 52 25  40 52 25  34 40 25  0 0 0  0 0 0  0 0 0
0 0 0  0 0 0  0 0 0  0 0 0  0 0 0  0 0 0
26 29 21  40 52 25  40 52 25  40 52 25  40 52 25  40 52 25
40 52 25  40 52 25  40 52 25  40 52 25  28 32 22  0 0 0
0 0 0  0 0 0  0 0 0  0 0 0  0 0 0  0 0 0
0 0 0
0 0 0  0 0 0  0 0 0  0 0 0  0 0 0  0 0 0
0 0 0  0 0 0  40 52 25  40 52 25  40 52 25  40 52 25
40 52 25  40 52 25  40 52 25  40 52 25  40 52 25  39 49 25
0 0 0  0 0 0  0 0 0  0 0 0  0 0 0  0 0 0
0 0 0  0 0 0  0 0 0  0 0 0  0 0 0  0 0 0
0 0 0  0 0 0  0 0 0  0 0 0  0 0 0  0 0 0
0 0 0  0 0 0  0 0 0  26 29 21  40 52 25  40 52 25
40 52 25  40 52 25  40 52 25  40 52 25  40 52 25  40 52 25
40 52 25  40 52 25  40 52 25  34 40 25  0 0 0  0 0 0
0 0 0  0 0 0  0 0 0  0 0 0  0 0 0  0 0 0
35 42 23  40 52 25  40 52 25  40 52 25  40 52 25  40 52 25
40 52 25  40 52 25  40 52 25  40 52 25  17 18 15  0 0 0
0 0 0  0 0 0  0 0 0  0 0 0  0 0 0  0 0 0
0 0 0
0 0 0  0 0 0  0 0 0  0 0 0  0 0 0  0 0 0
0 0 0  0 0 0  37 48 22  40 52 25  40 52 25  40 52 25
40 52 25  40 52 25  40 52 25  40 52 25  40 52 25  40 52 25
13 14 12  0 0 0  0 0 0  0 0 0  0 0 0  0 0 0
0 0 0  0 0 0  0 0 0  0 0 0  0 0 0  0 0 0
0 0 0  0 0 0  0 0 0  0 0 0  0 0 0  0 0 0
0 0 0  0 0 0  0 0 0  28 32 22  40 52 25  40 52 25
40 52 25  40 52 25  40 52 25  40 52 25  40 52 25  40 52 25
40 52 25  40 52 25  40 52 25  40 52 25  34 40 25  0 0 0
0 0 0  0 0 0  0 0 0  0 0 0  0 0 0  0 0 0
39 49 25  40 52 25  40 52 25  40 52 25  40 52 25  40 52 25
40 52 25  40 52 25  40 52 25  40 52 25  9 9 8  0 0 0
0 0 0  0 0 0  0 0 0  0 0 0  0 0 0  0 0 0
0 0 0
0 0 0  0 0 0  0 0 0  0 0 0  0 0 0  0 0 0
0 0 0  0 0 0  34 40 25  40 52 25  40 52 25  40 52 25
40 52 25  40 52 25  40 52 25  40 52 25  40 52 25  40 52 25
31 36 24  0 0 0  0 0 0  0 0 0  0 0 0  0 0 0
0 0 0  0 0 0  0 0 0  0 0 0  0 0 0  0 0 0
0 0 0  0 0 0  0 0 0  0 0 0  0 0 0  0 0 0
0 0 0  0 0 0  0 0 0  17 18 15  40 52 25  40 52 25
40 52 25  40 52 25  40 52 25  40 52 25  40 52 25  40 52 25
40 52 25  40 52 25  40 52 25  40 52 25  40 52 25  34 40 25
0 0 0  0 0 0  0 0 0  0 0 0  0 0 0  27 30 21
40 52 25  40 52 25  40 52 25  40 52 25  40 52 25  40 52 25
40 52 25  40 52 25  40 52 25  38 49 23  0 0 0  0 0 0
0 0 0  0 0 0  0 0 0  0 0 0  0 0 0  0 0 0
0 0 0
0 0 0  0 0 0  0 0 0  0 0 0  0 0 0  0 0 0
0 0 0  0 0 0  23 25 19  40 52 25  40 52 25  40 52 25
40 52 25  40 52 25  40 52 25  40 52 25  40 52 25  40 52 25
38 49 23  0 0 0  0 0 0  0 0 0  0 0 0  0 0 0
0 0 0  0 0 0  0 0 0  0 0 0  0 0 0  0 0 0
0 0 0  0 0 0  0 0 0  0 0 0  0 0 0  0 0 0
0 0 0  0 0 0  0 0 0  0 0 0  39 49 25  40 52 25
40 52 25  40 52 25  40 52 25  40 52 25  40 52 25  40 52 25
40 52 25  40 52 25  40 52 25  40 52 25  40 52 25  40 52 25
34 40 25  0 0 0  0 0 0  0 0 0  0 0 0  26 29 21
40 52 25  40 52 25  40 52 25  40 52 25  40 52 25  40 52 25
40 52 25  40 52 25  40 52 25  34 40 25  0 0 0  0 0 0
0 0 0  0 0 0  0 0 0  0 0 0  0 0 0  0 0 0
0 0 0
0 0 0  0 0 0  0 0 0  0 0 0  0 0 0  0 0 0
0 0 0  0 0 0  5 5 5  40 52 25  40 52 25  40 52 25
40 52 25  40 52 25  40 52 25  40 52 25  40 52 25  40 52 25
40 52 25  23 25 19  0 0 0  0 0 0  0 0 0  0 0 0
0 0 0  0 0 0  0 0 0  0 0 0  0 0 0  0 0 0
0 0 0  0 0 0  0 0 0  0 0 0  0 0 0  0 0 0
0 0 0  0 0 0  0 0 0  0 0 0  20 22 18  40 52 25
40 52 25  40 52 25  40 52 25  40 52 25  40 52 25  40 52 25
40 52 25  40 52 25  40 52 25  40 52 25  40 52 25  40 52 25
40 52 25  34 40 25  0 0 0  0 0 0  0 0 0  26 29 21
40 52 25  40 52 25  40 52 25  40 52 25  40 52 25  40 52 25
40 52 25  40 52 25  40 52 25  24 27 20  0 0 0  0 0 0
0 0 0  0 0 0  0 0 0  0 0 0  0 0 0  0 0 0
0 0 0
0 0 0  0 0 0  0 0 0  0 0 0  0 0 0  0 0 0
0 0 0  0 0 0  0 0 0  37 48 22  40 52 25  40 52 25
40 52 25  40 52 25  40 52 25  40 52 25  40 52 25  40 52 25
40 52 25  38 49 23  0 0 0  0 0 0  0 0 0  0 0 0
0 0 0  0 0 0  0 0 0  0 0 0  0 0 0  0 0 0
0 0 0  0 0 0  0 0 0  0 0 0  0 0 0  0 0 0
0 0 0  0 0 0  0 0 0  0 0 0  0 0 0  23 25 19
40 52 25  40 52 25  40 52 25  40 52 25  40 52 25  40 52 25
40 52 25  40 52 25  40 52 25  40 52 25  40 52 25  40 52 25
40 52 25  40 52 25  34 40 25  0 0 0  0 0 0  9 9 8
40 51 26  40 52 25  40 52 25  40 52 25  40 52 25  40 52 25
40 52 25  40 52 25  40 51 26  9 9 8  0 0 0  0 0 0
0 0 0  0 0 0  0 0 0  0 0 0  0 0 0  0 0 0
0 0 0
0 0 0  0 0 0  0 0 0  0 0 0  0 0 0  0 0 0
0 0 0  0 0 0  0 0 0  26 29 21  40 52 25  40 52 25
40 52 25  40 52 25  40 52 25  40 52 25  40 52 25  40 52 25
40 52 25  40 52 25  26 29 21  0 0 0  0 0 0  0 0 0
0 0 0  0 0 0  0 0 0  0 0 0  0 0 0  0 0 0
0 0 0  0 0 0  0 0 0  0 0 0  0 0 0  0 0 0
0 0 0  0 0 0  0 0 0  0 0 0  0 0 0  0 0 0
23 25 19  40 52 25  40 52 25  40 52 25  40 52 25  40 52 25
40 52 25  40 52 25  40 52 25  40 52 25  40 52 25  40 52 25
40 52 25  40 52 25  40 52 25  34 40 25  0 0 0  0 0 0
36 45 23  40 52 25  40 52 25  40 52 25  40 52 25  40 52 25
40 52 25  40 52 25  30 34 23  0 0 0  0 0 0  0 0 0
0 0 0  0 0 0  0 0 0  0 0 0  0 0 0  0 0 0
0 0 0
0 0 0  0 0 0  0 0 0  0 0 0  0 0 0  0 0 0
0 0 0  0 0 0  0 0 0  5 5 5  39 49 25  40 52 25
40 52 25  40 52 25  40 52 25  40 52 25  40 52 25  40 52 25
40 52 25  40 52 25  39 49 25  5 5 5  0 0 0  0 0 0
0 0 0  0 0 0  0 0 0  0 0 0  0 0 0  0 0 0
0 0 0  0 0 0  0 0 0  0 0 0  0 0 0  0 0 0
0 0 0  0 0 0  0 0 0  0 0 0  0 0 0  0 0 0
0 0 0  23 25 19  40 52 25  40 52 25  40 52 25  40 52 25
40 52 25  40 52 25  40 52 25  40 52 25  40 52 25  40 52 25
40 52 25  40 52 25  40 52 25  40 52 25  34 40 25  0 0 0
0 0 0  36 45 23  40 52 25  40 52 25  40 52 25  40 52 25
40 52 25  36 45 23  0 0 0  0 0 0  0 0 0  0 0 0
0 0 0  0 0 0  0 0 0  0 0 0  0 0 0  0 0 0
0 0 0
0 0 0  0 0 0  0 0 0  0 0 0  0 0 0  0 0 0
0 0 0  0 0 0  0 0 0  0 0 0  34 40 25  40 52 25
40 52 25  40 52 25  40 52 25  40 52 25  40 52 25  40 52 25
40 52 25  40 52 25  40 52 25  36 45 23  0 0 0  0 0 0
0 0 0  0 0 0  0 0 0  0 0 0  0 0 0  0 0 0
0 0 0  0 0 0  0 0 0  0 0 0  0 0 0  0 0 0
0 0 0  0 0 0  0 0 0  0 0 0  0 0 0  0 0 0
0 0 0  0 0 0  23 25 19  40 52 25  40 52 25  40 52 25
40 52 25  40 52 25  40 52 25  40 52 25  40 52 25  40 52 25
40 52 25  40 52 25  40 52 25  40 52 25  40 52 25  34 40 25
0 0 0  0 0 0  16 17 15  33 39 24  36 45 23  33 39 24
16 17 15  0 0 0  0 0 0  0 0 0  0 0 0  0 0 0
0 0 0  0 0 0  0 0 0  0 0 0  0 0 0  0 0 0
0 0 0
0 0 0  0 0 0  0 0 0  0 0 0  0 0 0  0 0 0
0 0 0  0 0 0  0 0 0  0 0 0  9 9 8  40 52 25
40 52 25  40 52 25  40 52 25  40 52 25  40 52 25  40 52 25
40 52 25  40 52 25  40 52 25  40 52 25  34 40 25  0 0 0
0 0 0  0 0 0  0 0 0  0 0 0  0 0 0  0 0 0
0 0 0  0 0 0  0 0 0  0 0 0  0 0 0  0 0 0
0 0 0  0 0 0  0 0 0  0 0 0  0 0 0  0 0 0
0 0 0  0 0 0  0 0 0  23 25 19  40 52 25  40 52 25
40 52 25  40 52 25  40 52 25  40 52 25  40 52 25  40 52 25
40 52 25  40 52 25  40 52 25  40 52 25  40 52 25  40 52 25
34 40 25  0 0 0  0 0 0  0 0 0  0 0 0  0 0 0
0 0 0  0 0 0  0 0 0  0 0 0  0 0 0  0 0 0
0 0 0  0 0 0  0 0 0  0 0 0  0 0 0  0 0 0
0 0 0
0 0 0  0 0 0  0 0 0  0 0 0  0 0 0  0 0 0
0 0 0  0 0 0  0 0 0  0 0 0  0 0 0  34 40 25
40 52 25  40 52 25  40 52 25  40 52 25  40 52 25  40 52 25
40 52 25  40 52 25  40 52 25  40 52 25  40 52 25  23 25 19
0 0 0  0 0 0  0 0 0  0 0 0  0 0 0  0 0 0
0 0 0  0 0 0  0 0 0  0 0 0  0 0 0  0 0 0
0 0 0  0 0 0  0 0 0  0 0 0  0 0 0  0 0 0
0 0 0  0 0 0  0 0 0  0 0 0  23 25 19  40 52 25
40 52 25  40 52 25  40 52 25  40 52 25  40 52 25  40 52 25
40 52 25  40 52 25  40 52 25  40 52 25  40 52 25  40 52 25
40 52 25  34 40 25  0 0 0  0 0 0  0 0 0  0 0 0
0 0 0  0 0 0  0 0 0  0 0 0  0 0 0  0 0 0
0 0 0  0 0 0  0 0 0  0 0 0  0 0 0  0 0 0
0 0 0
0 0 0  0 0 0  0 0 0  0 0 0  0 0 0  0 0 0
0 0 0  0 0 0  0 0 0  0 0 0  0 0 0  5 5 5
39 49 25  40 52 25  40 52 25  40 52 25  40 52 25  40 52 25
40 52 25  40 52 25  40 52 25  40 52 25  40 52 25  40 52 25
28 32 22  0 0 0  0 0 0  0 0 0  0 0 0  0 0 0
0 0 0  0 0 0  0 0 0  0 0 0  0 0 0  0 0 0
0 0 0  0 0 0  0 0 0  0 0 0  0 0 0  0 0 0
0 0 0  0 0 0  0 0 0  0 0 0  0 0 0  23 25 19
40 52 25  40 52 25  40 52 25  40 52 25  40 52 25  40 52 25
40 52 25  40 52 25  40 52 25  40 52 25  40 52 25  40 52 25
40 52 25  40 52 25  34 40 25  0 0 0  0 0 0  0 0 0
0 0 0  0 0 0  0 0 0  0 0 0  0 0 0  0 0 0
0 0 0  0 0 0  0 0 0  0 0 0  0 0 0  0 0 0
0 0 0
0 0 0  0 0 0  0 0 0  0 0 0  0 0 0  0 0 0
0 0 0  0 0 0  0 0 0  0 0 0  0 0 0  0 0 0
26 29 21  40 52 25  40 52 25  40 52 25  40 52 25  40 52 25
40 52 25  40 52 25  40 52 25  40 52 25  40 52 25  40 52 25
40 52 25  34 40 25  5 5 5  0 0 0  0 0 0  0 0 0
0 0 0  0 0 0  0 0 0  0 0 0  0 0 0  0 0 0
0 0 0  0 0 0  0 0 0  0 0 0  0 0 0  0 0 0
0 0 0  0 0 0  0 0 0  0 0 0  0 0 0  0 0 0
23 25 19  40 52 25  40 52 25  40 52 25  40 52 25  40 52 25
40 52 25  40 52 25  40 52 25  40 52 25  40 52 25  40 52 25
40 52 25  40 52 25  40 52 25  34 40 25  0 0 0  0 0 0
0 0 0  0 0 0  0 0 0  0 0 0  0 0 0  0 0 0
0 0 0  0 0 0  0 0 0  0 0 0  0 0 0  0 0 0
0 0 0
0 0 0  0 0 0  0 0 0  0 0 0  0 0 0  0 0 0
0 0 0  0 0 0  0 0 0  0 0 0  0 0 0  0 0 0
0 0 0  36 45 23  40 52 25  40 52 25  40 52 25  40 52 25
40 52 25  40 52 25  40 52 25  40 52 25  40 52 25  40 52 25
40 52 25  40 52 25  38 49 23  17 18 15  0 0 0  0 0 0
0 0 0  0 0 0  0 0 0  0 0 0  0 0 0  0 0 0
0 0 0  0 0 0  0 0 0  0 0 0  0 0 0  0 0 0
0 0 0  0 0 0  0 0 0  0 0 0  0 0 0  0 0 0
0 0 0  23 25 19  40 52 25  40 52 25  40 52 25  40 52 25
40 52 25  40 52 25  40 52 25  40 52 25  40 52 25  40 52 25
40 52 25  40 52 25  40 52 25  40 52 25  34 40 25  0 0 0
0 0 0  0 0 0  0 0 0  0 0 0  0 0 0  0 0 0
0 0 0  0 0 0  0 0 0  0 0 0  0 0 0  0 0 0
0 0 0
0 0 0  0 0 0  0 0 0  0 0 0  0 0 0  0 0 0
0 0 0  0 0 0  0 0 0  0 0 0  0 0 0  0 0 0
0 0 0  5 5 5  39 49 25  40 52 25  40 52 25  40 52 25
40 52 25  40 52 25  40 52 25  40 52 25  40 52 25  40 52 25
40 52 25  40 52 25  40 52 25  40 52 25  34 40 25  9 9 8
0 0 0  0 0 0  0 0 0  0 0 0  0 0 0  0 0 0
0 0 0  0 0 0  0 0 0  0 0 0  0 0 0  0 0 0
0 0 0  0 0 0  0 0 0  0 0 0  0 0 0  0 0 0
0 0 0  0 0 0  23 25 19  40 52 25  40 52 25  40 52 25
40 52 25  40 52 25  40 52 25  40 52 25  40 52 25  40 52 25
40 52 25  40 52 25  40 52 25  40 52 25  40 52 25  34 40 25
0 0 0  0 0 0  0 0 0  0 0 0  0 0 0  0 0 0
0 0 0  0 0 0  0 0 0  0 0 0  0 0 0  0 0 0
0 0 0
0 0 0  0 0 0  0 0 0  0 0 0  0 0 0  0 0 0
0 0 0  0 0 0  0 0 0  0 0 0  0 0 0  0 0 0
0 0 0  0 0 0  13 14 12  40 52 25  40 52 25  40 52 25
40 52 25  40 52 25  40 52 25  40 52 25  40 52 25  40 52 25
40 52 25  40 52 25  40 52 25  40 52 25  40 52 25  40 52 25
34 40 25  17 18 15  0 0 0  0 0 0  0 0 0  0 0 0
0 0 0  0 0 0  0 0 0  0 0 0  0 0 0  0 0 0
0 0 0  0 0 0  0 0 0  0 0 0  13 14 12  17 18 15
13 14 12  0 0 0  0 0 0  23 25 19  40 52 25  40 52 25
40 52 25  40 52 25  40 52 25  40 52 25  40 52 25  40 52 25
40 52 25  40 52 25  40 52 25  40 52 25  40 52 25  40 52 25
34 40 25  0 0 0  0 0 0  0 0 0  0 0 0  0 0 0
0 0 0  0 0 0  0 0 0  0 0 0  0 0 0  0 0 0
0 0 0
0 0 0  0 0 0  0 0 0  0 0 0  0 0 0  0 0 0
0 0 0  0 0 0  0 0 0  0 0 0  0 0 0  0 0 0
0 0 0  0 0 0  0 0 0  23 25 19  40 52 25  40 52 25
40 52 25  40 52 25  40 52 25  40 52 25  40 52 25  40 52 25
40 52 25  40 52 25  40 52 25  40 52 25  40 52 25  40 52 25
40 52 25  40 52 25  38 49 23  34 40 25  23 25 19  13 14 12
0 0 0  0 0 0  0 0 0  0 0 0  0 0 0  0 0 0
13 14 12  20 22 18  31 36 24  38 49 23  40 52 25  40 52 25
40 52 25  38 49 23  17 18 15  0 0 0  23 25 19  40 52 25
40 52 25  40 52 25  40 52 25  40 52 25  40 52 25  40 52 25
40 52 25  40 52 25  40 52 25  40 52 25  40 52 25  40 52 25
40 52 25  34 40 25  0 0 0  0 0 0  0 0 0  0 0 0
0 0 0  0 0 0  0 0 0  0 0 0  0 0 0  0 0 0
0 0 0
0 0 0  0 0 0  0 0 0  0 0 0  0 0 0  0 0 0
0 0 0  0 0 0  0 0 0  0 0 0  0 0 0  0 0 0
0 0 0  0 0 0  0 0 0  0 0 0  23 25 19  40 52 25
40 52 25  40 52 25  40 52 25  40 52 25  40 52 25  40 52 25
40 52 25  40 52 25  40 52 25  40 52 25  40 52 25  40 52 25
40 52 25  40 52 25  40 52 25  40 52 25  40 52 25  40 52 25
40 52 25  40 52 25  37 48 22  37 48 22  40 52 25  40 52 25
40 52 25  40 52 25  40 52 25  40 52 25  40 52 25  40 52 25
40 52 25  40 52 25  40 52 25  20 22 18  0 0 0  23 25 19
40 52 25  40 52 25  40 52 25  40 52 25  40 52 25  40 52 25
40 52 25  40 52 25  40 52 25  40 52 25  40 52 25  40 52 25
40 52 25  40 52 25  34 40 25  0 0 0  0 0 0  0 0 0
0 0 0  0 0 0  0 0 0  0 0 0  0 0 0  0 0 0
0 0 0
0 0 0  0 0 0  0 0 0  0 0 0  0 0 0  0 0 0
0 0 0  0 0 0  0 0 0  0 0 0  0 0 0  0 0 0
0 0 0  0 0 0  0 0 0  0 0 0  0 0 0  23 25 19
40 52 25  40 52 25  40 52 25  40 52 25  40 52 25  40 52 25
40 52 25  40 52 25  40 52 25  40 52 25  40 52 25  40 52 25
40 52 25  40 52 25  40 52 25  40 52 25  40 52 25  40 52 25
40 52 25  40 52 25  40 52 25  40 52 25  40 52 25  40 52 25
40 52 25  40 52 25  40 52 25  40 52 25  40 52 25  40 52 25
40 52 25  40 52 25  40 52 25  39 49 25  0 0 0  0 0 0
23 25 19  40 52 25  40 52 25  40 52 25  40 52 25  40 52 25
40 52 25  40 52 25  40 52 25  40 52 25  40 52 25  40 52 25
40 52 25  40 52 25  40 52 25  28 32 22  0 0 0  0 0 0
0 0 0  0 0 0  0 0 0  0 0 0  0 0 0  0 0 0
0 0 0
0 0 0  0 0 0  0 0 0  0 0 0  0 0 0  0 0 0
0 0 0  0 0 0  0 0 0  0 0 0  0 0 0  0 0 0
0 0 0  0 0 0  0 0 0  0 0 0  0 0 0  0 0 0
20 22 18  39 49 25  40 52 25  40 52 25  40 52 25  40 52 25
40 52 25  40 52 25  40 52 25  40 52 25  40 52 25  40 52 25
40 52 25  40 52 25  40 52 25  40 52 25  40 52 25  40 52 25
40 52 25  40 52 25  40 52 25  40 52 25  40 52 25  40 52 25
40 52 25  40 52 25  40 52 25  40 52 25  40 52 25  40 52 25
40 52 25  40 52 25  40 52 25  40 52 25  17 18 15  0 0 0
0 0 0  23 25 19  40 52 25  40 52 25  40 52 25  40 52 25
40 52 25  40 52 25  40 52 25  40 52 25  40 52 25  40 52 25
40 52 25  40 52 25  40 52 25  40 52 25  9 9 8  0 0 0
0 0 0  0 0 0  0 0 0  0 0 0  0 0 0  0 0 0
0 0 0
0 0 0  0 0 0  0 0 0  0 0 0  0 0 0  0 0 0
0 0 0  0 0 0  0 0 0  0 0 0  0 0 0  0 0 0
0 0 0  0 0 0  0 0 0  0 0 0  0 0 0  0 0 0
0 0 0  13 14 12  37 48 22  40 52 25  40 52 25  40 52 25
40 52 25  40 52 25  40 52 25  40 52 25  40 52 25  40 52 25
40 52 25  40 52 25  40 52 25  40 52 25  40 52 25  40 52 25
40 52 25  40 52 25  40 52 25  40 52 25  40 52 25  40 52 25
40 52 25  40 52 25  40 52 25  40 52 25  40 52 25  40 52 25
40 52 25  40 52 25  40 52 25  40 52 25  17 18 15  0 0 0
0 0 0  0 0 0  23 25 19  40 52 25  40 52 25  40 52 25
40 52 25  40 52 25  40 52 25  40 52 25  40 52 25  40 52 25
40 52 25  40 52 25  40 52 25  40 52 25  26 29 21  0 0 0
0 0 0  0 0 0  0 0 0  0 0 0  0 0 0  0 0 0
0 0 0
0 0 0  0 0 0  0 0 0  0 0 0  0 0 0  0 0 0
0 0 0  0 0 0  0 0 0  0 0 0  0 0 0  0 0 0
0 0 0  0 0 0  0 0 0  0 0 0  0 0 0  0 0 0
0 0 0  0 0 0  5 5 5  31 36 24  40 52 25  40 52 25
40 52 25  40 52 25  40 52 25  40 52 25  40 52 25  40 52 25
40 52 25  40 52 25  40 52 25  40 52 25  40 52 25  40 52 25
40 52 25  40 52 25  40 52 25  40 52 25  40 52 25  40 52 25
40 52 25  40 52 25  40 52 25  40 52 25  40 52 25  40 52 25
40 52 25  40 52 25  40 52 25  40 52 25  17 18 15  0 0 0
0 0 0  0 0 0  0 0 0  23 25 19  40 52 25  40 52 25
40 52 25  40 52 25  40 52 25  40 52 25  40 52 25  40 52 25
40 52 25  40 52 25  40 52 25  40 52 25  28 32 22  0 0 0
0 0 0  0 0 0  0 0 0  0 0 0  0 0 0  0 0 0
0 0 0
0 0 0  0 0 0  0 0 0  0 0 0  0 0 0  0 0 0
0 0 0  0 0 0  0 0 0  0 0 0  0 0 0  0 0 0
0 0 0  0 0 0  0 0 0  0 0 0  0 0 0  0 0 0
0 0 0  0 0 0  0 0 0  0 0 0  17 18 15  37 48 22
40 52 25  40 52 25  40 52 25  40 52 25  40 52 25  40 52 25
40 52 25  40 52 25  40 52 25  40 52 25  40 52 25  40 52 25
40 52 25  40 52 25  40 52 25  40 52 25  40 52 25  40 52 25
40 52 25  40 52 25  40 52 25  40 52 25  40 52 25  40 52 25
40 52 25  40 52 25  40 52 25  39 49 25  5 5 5  0 0 0
0 0 0  0 0 0  0 0 0  0 0 0  23 25 19  40 52 25
40 52 25  40 52 25  40 52 25  40 52 25  40 52 25  40 52 25
40 52 25  40 52 25  40 52 25  40 52 25  28 32 22  0 0 0
0 0 0  0 0 0  0 0 0  0 0 0  0 0 0  0 0 0
0 0 0
0 0 0  0 0 0  0 0 0  0 0 0  0 0 0  0 0 0
0 0 0  0 0 0  0 0 0  0 0 0  0 0 0  0 0 0
0 0 0  0 0 0  0 0 0  0 0 0  0 0 0  0 0 0
0 0 0  0 0 0  0 0 0  0 0 0  0 0 0  0 0 0
23 25 19  38 49 23  40 52 25  40 52 25  40 52 25  40 52 25
40 52 25  40 52 25  40 52 25  40 52 25  40 52 25  40 52 25
40 52 25  40 52 25  40 52 25  40 52 25  40 52 25  40 52 25
40 52 25  40 52 25  40 52 25  40 52 25  40 52 25  40 52 25
40 52 25  40 52 25  40 52 25  28 32 22  0 0 0  0 0 0
0 0 0  0 0 0  0 0 0  0 0 0  0 0 0  23 25 19
40 52 25  40 52 25  40 52 25  40 52 25  40 52 25  40 52 25
40 52 25  40 52 25  40 52 25  40 52 25  20 22 18  0 0 0
0 0 0  0 0 0  0 0 0  0 0 0  0 0 0  0 0 0
0 0 0
0 0 0  0 0 0  0 0 0  0 0 0  0 0 0  0 0 0
0 0 0  0 0 0  0 0 0  0 0 0  0 0 0  0 0 0
0 0 0  0 0 0  0 0 0  0 0 0  0 0 0  0 0 0
0 0 0  0 0 0  0 0 0  0 0 0  0 0 0  0 0 0
0 0 0  0 0 0  20 22 18  35 42 23  40 52 25  40 52 25
40 52 25  40 52 25  40 52 25  40 52 25  40 52 25  40 52 25
40 52 25  40 52 25  40 52 25  40 52 25  40 52 25  40 52 25
40 52 25  40 52 25  40 52 25  40 52 25  40 52 25  40 52 25
40 52 25  39 49 25  23 25 19  0 0 0  0 0 0  0 0 0
0 0 0  0 0 0  0 0 0  0 0 0  0 0 0  0 0 0
23 25 19  40 52 25  40 52 25  40 52 25  40 52 25  40 52 25
40 52 25  40 52 25  40 52 25  37 48 22  0 0 0  0 0 0
0 0 0  0 0 0  0 0 0  0 0 0  0 0 0  0 0 0
0 0 0
0 0 0  0 0 0  0 0 0  0 0 0  0 0 0  0 0 0
0 0 0  0 0 0  0 0 0  0 0 0  0 0 0  0 0 0
0 0 0  0 0 0  0 0 0  0 0 0  0 0 0  0 0 0
0 0 0  0 0 0  0 0 0  0 0 0  0 0 0  0 0 0
0 0 0  0 0 0  0 0 0  0 0 0  9 9 8  26 29 21
35 42 23  40 52 25  40 52 25  40 52 25  40 52 25  40 52 25
40 52 25  40 52 25  40 52 25  40 52 25  40 52 25  40 52 25
40 52 25  40 52 25  40 52 25  40 52 25  40 52 25  35 42 23
26 29 21  5 5 5  0 0 0  0 0 0  0 0 0  0 0 0
0 0 0  0 0 0  0 0 0  0 0 0  0 0 0  0 0 0
0 0 0  23 25 19  40 52 25  40 52 25  40 52 25  40 52 25
40 52 25  40 52 25  39 49 25  13 14 12  0 0 0  0 0 0
0 0 0  0 0 0  0 0 0  0 0 0  0 0 0  0 0 0
0 0 0
0 0 0  0 0 0  0 0 0  0 0 0  0 0 0  0 0 0
0 0 0  0 0 0  0 0 0  0 0 0  0 0 0  0 0 0
0 0 0  0 0 0  0 0 0  0 0 0  0 0 0  0 0 0
0 0 0  0 0 0  0 0 0  0 0 0  0 0 0  0 0 0
0 0 0  0 0 0  0 0 0  0 0 0  0 0 0  0 0 0
0 0 0  0 0 0  13 14 12  23 25 19  28 32 22  36 45 23
36 45 23  36 45 23  36 45 23  36 45 23  36 45 23  36 45 23
36 45 23  28 32 22  23 25 19  17 18 15  0 0 0  0 0 0
0 0 0  0 0 0  0 0 0  0 0 0  0 0 0  0 0 0
0 0 0  0 0 0  0 0 0  0 0 0  0 0 0  0 0 0
0 0 0  0 0 0  17 18 15  35 42 23  39 49 25  40 52 25
38 49 23  31 36 24  5 5 5  0 0 0  0 0 0  0 0 0
0 0 0  0 0 0  0 0 0  0 0 0  0 0 0  0 0 0
0 0 0
0 0 0  0 0 0  0 0 0  0 0 0  0 0 0  0 0 0
0 0 0  0 0 0  0 0 0  0 0 0  0 0 0  0 0 0
0 0 0  0 0 0  0 0 0  0 0 0  0 0 0  0 0 0
0 0 0  0 0 0  0 0 0  0 0 0  0 0 0  0 0 0
0 0 0  0 0 0  0 0 0  0 0 0  0 0 0  0 0 0
0 0 0  0 0 0  0 0 0  0 0 0  0 0 0  0 0 0
0 0 0  0 0 0  0 0 0  0 0 0  0 0 0  0 0 0
0 0 0  0 0 0  0 0 0  0 0 0  0 0 0  0 0 0
0 0 0  0 0 0  0 0 0  0 0 0  0 0 0  0 0 0
0 0 0  0 0 0  0 0 0  0 0 0  0 0 0  0 0 0
0 0 0  0 0 0  0 0 0  0 0 0  0 0 0  0 0 0
0 0 0  0 0 0  0 0 0  0 0 0  0 0 0  0 0 0
0 0 0  0 0 0  0 0 0  0 0 0  0 0 0  0 0 0
0 0 0
0 0 0  0 0 0  0 0 0  0 0 0  0 0 0  0 0 0
0 0 0  0 0 0  0 0 0  0 0 0  0 0 0  0 0 0
0 0 0  0 0 0  0 0 0  0 0 0  0 0 0  0 0 0
0 0 0  0 0 0  0 0 0  0 0 0  0 0 0  0 0 0
0 0 0  0 0 0  0 0 0  0 0 0  0 0 0  0 0 0
0 0 0  0 0 0  0 0 0  0 0 0  0 0 0  0 0 0
0 0 0  0 0 0  0 0 0  0 0 0  0 0 0  0 0 0
0 0 0  0 0 0  0 0 0  0 0 0  0 0 0  0 0 0
0 0 0  0 0 0  0 0 0  0 0 0  0 0 0  0 0 0
0 0 0  0 0 0  0 0 0  0 0 0  0 0 0  0 0 0
0 0 0  0 0 0  0 0 0  0 0 0  0 0 0  0 0 0
0 0 0  0 0 0  0 0 0  0 0 0  0 0 0  0 0 0
0 0 0  0 0 0  0 0 0  0 0 0  0 0 0  0 0 0
0 0 0
0 0 0  0 0 0  0 0 0  0 0 0  0 0 0  0 0 0
0 0 0  0 0 0  0 0 0  0 0 0  0 0 0  0 0 0
0 0 0  0 0 0  0 0 0  0 0 0  0 0 0  0 0 0
0 0 0  0 0 0  0 0 0  0 0 0  0 0 0  0 0 0
0 0 0  0 0 0  0 0 0  0 0 0  0 0 0  0 0 0
0 0 0  0 0 0  0 0 0  0 0 0  0 0 0  0 0 0
0 0 0  0 0 0  0 0 0  0 0 0  0 0 0  0 0 0
0 0 0  0 0 0  0 0 0  0 0 0  0 0 0  0 0 0
0 0 0  0 0 0  0 0 0  0 0 0  0 0 0  0 0 0
0 0 0  0 0 0  0 0 0  0 0 0  0 0 0  0 0 0
0 0 0  0 0 0  0 0 0  0 0 0  0 0 0  0 0 0
0 0 0  0 0 0  0 0 0  0 0 0  0 0 0  0 0 0
0 0 0  0 0 0  0 0 0  0 0 0  0 0 0  0 0 0
0 0 0
0 0 0  0 0 0  0 0 0  0 0 0  0 0 0  0 0 0
0 0 0  0 0 0  0 0 0  0 0 0  0 0 0  0 0 0
0 0 0  0 0 0  0 0 0  0 0 0  0 0 0  0 0 0
0 0 0  0 0 0  0 0 0  0 0 0  0 0 0  0 0 0
0 0 0  0 0 0  0 0 0  0 0 0  0 0 0  0 0 0
0 0 0  0 0 0  0 0 0  0 0 0  0 0 0  0 0 0
0 0 0  0 0 0  0 0 0  0 0 0  0 0 0  0 0 0
0 0 0  0 0 0  0 0 0  0 0 0  0 0 0  0 0 0
0 0 0  0 0 0  0 0 0  0 0 0  0 0 0  0 0 0
0 0 0  0 0 0  0 0 0  0 0 0  0 0 0  0 0 0
0 0 0  0 0 0  0 0 0  0 0 0  0 0 0  0 0 0
0 0 0  0 0 0  0 0 0  0 0 0  0 0 0  0 0 0
0 0 0  0 0 0  0 0 0  0 0 0  0 0 0  0 0 0
0 0 0
